# xmcd
#
# Track frame offsets: 
#        150
#        13217
#        25527
#        35927
#        49422
#        66200
#        85017
#        93055
#        107127
#        124212
#        138030
#        151717
#        163222
#        181960
#        193812
#
# Disc length: 2817 seconds
#
# Revision: 5
# Processed by: cddbd v1.4PL0 Copyright (c) Steve Scherf et al.
# Submitted via: ExactAudioCopy v0.90b3
#
DISCID=c40aff0f
DTITLE=Johnny Cash - The Man In Black (His Greatest Hits) - Disc 2
DYEAR=1900
DGENRE=Country
TTITLE0=Man In Black
TTITLE1=Understand Your Man
TTITLE2=There You Go
TTITLE3=Tennessee Flat-Top Box
TTITLE4=Girl From North Country (With Bob Dylan)
TTITLE5=Sunday Morning Coming Down
TTITLE6=Five Feet High And Rising
TTITLE7=Orange Blossom Special (With Charlie McCoy, Boots Randolph and T
TTITLE7=he Carter Family)
TTITLE8=(Ghost) Riders In The Sky
TTITLE9=Highwayman (With Kris Kristofferson, Waylon Jennings and Willie 
TTITLE9=Nelson)
TTITLE10=If I Were A Carpenter (With June Carter)
TTITLE11=A Thing Called Love
TTITLE12=The Ballad Of Ira Hayes
TTITLE13=I Still Miss Someone
TTITLE14=Were Your There (When They Crucified My Lord) (With The Carte
TTITLE14=r Family)
EXTD=
EXTT0=
EXTT1=
EXTT2=
EXTT3=
EXTT4=Johnny Cash W/Bob Dylan
EXTT5=
EXTT6=
EXTT7=Johnny Cash W/ Charlie McCoy, Boots Randolph and Car
EXTT8=
EXTT9=Johnny Cash W/Kris Kristofferson, Waylon Jennings
EXTT10=Johnny Cash W/ June Carter Cash
EXTT11=
EXTT12=
EXTT13=
EXTT14=Johnny Cash W/ The Carter Family
PLAYORDER=
